<?xml version="1.0" standalone="no"?>
<!DOCTYPE svg PUBLIC "-//W3C//DTD SVG 1.1//EN" "http://www.w3.org/Graphics/SVG/1.1/DTD/svg11.dtd" >
<svg xmlns="http://www.w3.org/2000/svg" xmlns:xlink="http://www.w3.org/1999/xlink" version="1.1">
<metadata>
Created by FontForge 20160407 at Fri May  6 22:12:15 2016
 By Jimmy Wärting
Copyright (c) Mark Simonson, 2005. All rights reserved.
</metadata>
<defs>
<font id="ProximaNovaSExCn-Semibold" horiz-adv-x="381" >
  <font-face 
    font-family="Proxima Nova ScOsf ExCn Lt"
    font-weight="600"
    font-stretch="normal"
    units-per-em="1000"
    panose-1="2 0 5 6 3 0 0 2 0 4"
    ascent="790"
    descent="-210"
    x-height="550"
    cap-height="667"
    bbox="-99 -199 734 872"
    underline-thickness="20"
    underline-position="-133"
    stemh="21"
    stemv="107"
    unicode-range="U+000D-FB02"
  />
<missing-glyph horiz-adv-x="464" 
d="M408 -90h-351v842h351v-842zM376 -60v782h-288v-782h288z" />
    <glyph glyph-name="fi" unicode="fi" horiz-adv-x="522" 
d="M148 0h-98v550h243v-85h-145v-141h139v-86h-139v-238zM472 0h-98v550h98v-550z" />
    <glyph glyph-name="fl" unicode="fl" horiz-adv-x="636" 
d="M148 0h-98v550h243v-85h-145v-141h139v-86h-139v-238zM617 0h-243v550h98v-465h145v-85z" />
    <glyph glyph-name=".notdef" horiz-adv-x="464" 
d="M408 -90h-351v842h351v-842zM376 -60v782h-288v-782h288z" />
    <glyph glyph-name="Eth" unicode="&#xd0;" horiz-adv-x="476" 
d="M228 0h-150v291h-60v76h60v300h149c151 0 213 -143 213 -334c0 -193 -61 -333 -212 -333zM256 291h-74v-199h45c74 0 106 93 106 241c0 151 -33 242 -106 242h-45v-208h74v-76z" />
    <glyph glyph-name="Lslash" unicode="&#x141;" horiz-adv-x="362" 
d="M18 231v88l50 29v319h104v-259l59 34v-87l-59 -35v-228h169v-92h-273v260z" />
    <glyph glyph-name="Scaron" unicode="&#x160;" horiz-adv-x="369" 
d="M251 728h-87l-67 144h54l56 -98l54 98h53zM175 -12c-67 0 -120 22 -159 64l47 82c26 -34 68 -53 106 -53c43 0 75 35 75 86c0 133 -210 137 -210 334c0 98 66 177 172 177c52 0 100 -18 134 -51l-42 -80c-25 26 -55 38 -89 38c-39 0 -69 -31 -69 -78
c0 -116 210 -135 210 -334c0 -107 -69 -185 -175 -185z" />
    <glyph glyph-name="Yacute" unicode="&#xdd;" horiz-adv-x="405" 
d="M312 872l-103 -144h-61l79 144h85zM255 0h-104v279l-154 388h112l94 -285l95 285h110l-153 -388v-279z" />
    <glyph glyph-name="Thorn" unicode="&#xde;" horiz-adv-x="418" 
d="M161 0h-104v667h104v-115h57c122 0 176 -97 176 -207c0 -109 -54 -205 -176 -205h-57v-140zM208 232c52 0 79 46 79 113c0 68 -27 115 -79 115h-47v-228h47z" />
    <glyph glyph-name="Zcaron" unicode="&#x17d;" horiz-adv-x="360" 
d="M226 728h-87l-67 144h54l56 -98l54 98h53zM330 0h-299v89l175 486h-175v92h292v-85l-178 -490h185v-92z" />
    <glyph glyph-name="onehalf" unicode="&#xbd;" horiz-adv-x="651" 
d="M469 667l-277 -667h-46l276 667h47zM631 0h-232v54c134 157 158 191 158 239c0 32 -21 54 -51 54c-28 0 -54 -18 -71 -49l-45 42c28 42 67 66 120 66c71 0 119 -41 119 -111c0 -58 -35 -108 -139 -236h141v-59zM184 267h-73v306l-58 -60l-41 43l109 111h63v-400z" />
    <glyph glyph-name="onequarter" unicode="&#xbc;" horiz-adv-x="617" 
d="M469 667l-277 -667h-46l276 667h47zM603 95h-35v-95h-72v95h-145v58l129 247h88v-247h35v-58zM496 153v166l-83 -166h83zM184 267h-73v306l-58 -60l-41 43l109 111h63v-400z" />
    <glyph glyph-name="onesuperior" unicode="&#xb9;" horiz-adv-x="232" 
d="M184 421h-73v306l-58 -60l-41 43l109 111h63v-400z" />
    <glyph glyph-name="threequarters" unicode="&#xbe;" horiz-adv-x="653" 
d="M505 667l-277 -667h-46l276 667h47zM639 95h-35v-95h-72v95h-145v58l129 247h88v-247h35v-58zM532 153v166l-83 -166h83zM262 377c0 -70 -47 -117 -123 -117c-57 0 -100 28 -122 65l48 44c16 -30 40 -50 71 -50c38 0 54 26 54 62c0 48 -31 62 -58 62c-11 0 -22 0 -28 -1
v59c5 -1 17 -1 25 -1c34 0 56 18 56 56c0 40 -19 58 -50 58c-28 0 -52 -17 -68 -44l-46 39c26 41 69 64 118 64c68 0 117 -35 117 -108c0 -43 -29 -83 -67 -91c39 -7 73 -46 73 -97z" />
    <glyph glyph-name="threesuperior" unicode="&#xb3;" horiz-adv-x="281" 
d="M262 531c0 -70 -47 -117 -123 -117c-57 0 -100 28 -122 65l48 44c16 -30 40 -50 71 -50c38 0 54 26 54 62c0 48 -31 62 -58 62c-11 0 -22 0 -28 -1v59c5 -1 17 -1 25 -1c34 0 56 18 56 56c0 40 -19 58 -50 58c-28 0 -52 -17 -68 -44l-46 39c26 41 69 64 118 64
c68 0 117 -35 117 -108c0 -43 -29 -83 -67 -91c39 -7 73 -46 73 -97z" />
    <glyph glyph-name="twosuperior" unicode="&#xb2;" horiz-adv-x="281" 
d="M261 421h-232v54c134 157 158 191 158 239c0 32 -21 54 -51 54c-28 0 -54 -18 -71 -49l-45 42c28 42 67 66 120 66c71 0 119 -41 119 -111c0 -58 -35 -108 -139 -236h141v-59z" />
    <glyph glyph-name="brokenbar" unicode="&#xa6;" horiz-adv-x="179" 
d="M122 -20h-65v316h65v-316zM122 371h-65v316h65v-316z" />
    <glyph glyph-name="minus" unicode="&#x2212;" 
d="M352 303h-323v62h323v-62z" />
    <glyph glyph-name="multiply" unicode="&#xd7;" 
d="M294 187l-104 103l-103 -103l-44 44l104 103l-104 103l44 44l103 -103l104 103l44 -44l-104 -103l104 -103z" />
    <glyph glyph-name="space" unicode=" " horiz-adv-x="165" 
 />
    <glyph glyph-name="quotedbl" unicode="&#x22;" horiz-adv-x="366" 
d="M126 399h-44s-32 208 -32 224c0 30 25 54 54 54s54 -24 54 -54c0 -16 -32 -224 -32 -224zM284 399h-44s-32 208 -32 224c0 30 24 54 54 54s54 -24 54 -54c0 -16 -32 -224 -32 -224z" />
    <glyph glyph-name="quotesingle" unicode="'" horiz-adv-x="208" 
d="M126 399h-44s-32 208 -32 224c0 30 25 54 54 54s54 -24 54 -54c0 -16 -32 -224 -32 -224z" />
    <glyph glyph-name="parenleft" unicode="(" horiz-adv-x="237" 
d="M217 -169l-68 -30c-67 136 -102 281 -102 442s35 306 102 442l68 -29c-41 -125 -67 -252 -67 -413c0 -160 26 -288 67 -412z" />
    <glyph glyph-name="parenright" unicode=")" horiz-adv-x="237" 
d="M87 -199l-67 30c41 124 67 252 67 412c0 161 -26 288 -67 413l67 29c68 -136 103 -281 103 -442s-35 -306 -103 -442z" />
    <glyph glyph-name="asterisk" unicode="*" horiz-adv-x="313" 
d="M182 381h-51l5 113l-95 -61l-26 45l100 51l-100 51l26 45l95 -61l-5 113h51l-5 -113l95 61l26 -45l-101 -51l101 -51l-26 -45l-95 61z" />
    <glyph glyph-name="plus" unicode="+" 
d="M352 306h-128v-149h-67v149h-128v62h128v143h67v-143h128v-62z" />
    <glyph glyph-name="comma" unicode="," horiz-adv-x="241" 
d="M189 32c0 -66 -37 -126 -89 -162l-43 35c32 20 63 60 69 94c-2 -1 -10 -2 -15 -2c-32 0 -56 24 -56 58s28 63 63 63c38 0 71 -31 71 -86z" />
    <glyph glyph-name="hyphen" unicode="-" horiz-adv-x="239" 
d="M208 201h-178v82h178v-82z" />
    <glyph glyph-name="period" unicode="." horiz-adv-x="239" 
d="M120 -10c-35 0 -65 29 -65 64s30 64 65 64s64 -29 64 -64s-29 -64 -64 -64z" />
    <glyph glyph-name="slash" unicode="/" horiz-adv-x="216" 
d="M69 -20h-69l147 707h69z" />
    <glyph glyph-name="colon" unicode=":" horiz-adv-x="238" 
d="M120 362c-35 0 -65 29 -65 64s30 64 65 64s64 -29 64 -64s-29 -64 -64 -64zM120 -10c-35 0 -65 29 -65 64s30 64 65 64s64 -29 64 -64s-29 -64 -64 -64z" />
    <glyph glyph-name="semicolon" unicode=";" horiz-adv-x="239" 
d="M120 362c-35 0 -65 30 -65 64c0 35 30 64 65 64s64 -29 64 -64c0 -34 -29 -64 -64 -64zM189 35c0 -66 -37 -126 -89 -163l-43 36c32 19 63 60 69 93c-2 0 -10 -2 -15 -2c-32 0 -56 24 -56 59c0 34 28 63 63 63c38 0 71 -32 71 -86z" />
    <glyph glyph-name="less" unicode="&#x3c;" 
d="M352 158l-323 143v67l323 143v-73l-249 -104l249 -102v-74z" />
    <glyph glyph-name="equal" unicode="=" 
d="M352 399h-323v62h323v-62zM352 207h-323v62h323v-62z" />
    <glyph glyph-name="greater" unicode="&#x3e;" 
d="M352 301l-323 -143v74l249 102l-249 104v73l323 -143v-67z" />
    <glyph glyph-name="at" unicode="@" horiz-adv-x="620" 
d="M267 -70c-145 0 -232 110 -232 285c0 217 155 424 341 424c122 0 209 -91 209 -243c0 -173 -76 -311 -160 -311c-44 0 -75 27 -80 68l-1 8c-25 -39 -58 -76 -111 -76c-45 0 -93 29 -93 126c0 135 74 288 187 288c40 0 63 -30 72 -68l11 52h84l-56 -263
c-1 -5 -3 -20 -3 -25c0 -32 8 -44 29 -44c28 0 83 88 83 244c0 135 -70 208 -173 208c-165 0 -301 -196 -301 -387c0 -147 69 -251 199 -251c57 0 100 22 143 56l18 -28c-51 -40 -104 -63 -166 -63zM272 153c39 0 63 38 82 70l32 148c-6 29 -19 59 -47 59
c-72 0 -111 -125 -111 -206c0 -44 13 -71 44 -71z" />
    <glyph glyph-name="A" unicode="A" horiz-adv-x="398" 
d="M395 0h-107l-23 136h-132l-23 -136h-107l136 667h120zM253 228l-54 320l-54 -320h108z" />
    <glyph glyph-name="B" unicode="B" horiz-adv-x="431" 
d="M240 0h-183v667h176c104 0 153 -74 153 -170c0 -84 -37 -135 -93 -153c61 -10 102 -83 102 -164c0 -105 -46 -180 -155 -180zM208 386c53 0 71 39 71 94s-18 95 -71 95h-47v-189h47zM212 92c53 0 76 37 76 101c0 56 -23 101 -76 101h-51v-202h51z" />
    <glyph glyph-name="C" unicode="C" horiz-adv-x="412" 
d="M230 -12c-137 0 -194 149 -194 345c0 197 57 345 194 345c98 0 134 -77 155 -145l-84 -31c-15 51 -32 83 -71 83c-64 0 -87 -107 -87 -252s23 -252 87 -252c44 0 62 43 72 99l85 -31c-18 -75 -56 -161 -157 -161z" />
    <glyph glyph-name="D" unicode="D" horiz-adv-x="455" 
d="M207 0h-150v667h149c151 0 213 -143 213 -334c0 -193 -61 -333 -212 -333zM206 92c74 0 106 93 106 241c0 151 -33 242 -106 242h-45v-483h45z" />
    <glyph glyph-name="E" unicode="E" horiz-adv-x="367" 
d="M330 0h-273v667h273v-92h-169v-189h162v-92h-162v-202h169v-92z" />
    <glyph glyph-name="F" unicode="F" horiz-adv-x="365" 
d="M161 0h-104v667h273v-92h-169v-189h162v-92h-162v-294z" />
    <glyph glyph-name="G" unicode="G" horiz-adv-x="435" 
d="M230 -12c-134 0 -194 141 -194 345c0 205 60 345 194 345c87 0 134 -66 155 -145l-84 -31c-13 48 -30 83 -71 83c-57 0 -87 -89 -87 -252c0 -162 30 -252 87 -252c30 0 51 13 65 35v144h-81v92h174v-280c-40 -54 -90 -84 -158 -84z" />
    <glyph glyph-name="H" unicode="H" horiz-adv-x="463" 
d="M407 0h-105v297h-141v-297h-104v667h104v-278h141v278h105v-667z" />
    <glyph glyph-name="I" unicode="I" horiz-adv-x="218" 
d="M161 0h-104v667h104v-667z" />
    <glyph glyph-name="J" unicode="J" horiz-adv-x="337" 
d="M115 -12c-39 0 -76 11 -108 40l32 85c19 -23 42 -32 65 -32c45 0 73 24 73 80v506h104v-511c0 -117 -67 -168 -166 -168z" />
    <glyph glyph-name="K" unicode="K" horiz-adv-x="448" 
d="M442 0h-119l-119 269l-43 -85v-184h-104v667h104v-325l153 325h115l-165 -315z" />
    <glyph glyph-name="L" unicode="L" horiz-adv-x="351" 
d="M330 0h-273v667h104v-575h169v-92z" />
    <glyph glyph-name="M" unicode="M" horiz-adv-x="591" 
d="M535 0h-103v465l-118 -465h-37l-116 465v-465h-104v667h135l104 -412l106 412h133v-667z" />
    <glyph glyph-name="N" unicode="N" horiz-adv-x="463" 
d="M407 0h-99l-147 426v-426h-104v667h104l141 -415v415h105v-667z" />
    <glyph glyph-name="O" unicode="O" horiz-adv-x="459" 
d="M229 -12c-138 0 -193 152 -193 345c0 194 55 345 193 345c139 0 194 -151 194 -345c0 -193 -55 -345 -194 -345zM229 81c65 0 87 113 87 252c0 141 -22 252 -87 252c-64 0 -86 -111 -86 -252c0 -139 22 -252 86 -252z" />
    <glyph glyph-name="P" unicode="P" horiz-adv-x="418" 
d="M161 0h-104v667h161c122 0 176 -96 176 -206s-54 -206 -176 -206h-57v-255zM208 347c52 0 79 47 79 114c0 68 -27 114 -79 114h-47v-228h47z" />
    <glyph glyph-name="Q" unicode="Q" horiz-adv-x="459" 
d="M229 -12c-138 0 -193 152 -193 345c0 194 55 345 193 345c139 0 194 -151 194 -345c0 -130 -25 -241 -83 -300l15 -39l-74 -29l-11 28c-13 -3 -26 -5 -41 -5zM229 81h7l-51 134l74 29l36 -95c15 46 21 112 21 184c0 141 -22 252 -87 252c-64 0 -86 -111 -86 -252
c0 -139 22 -252 86 -252z" />
    <glyph glyph-name="R" unicode="R" horiz-adv-x="438" 
d="M400 0h-112l-79 255h-48v-255h-104v667h166c99 0 171 -81 171 -203c0 -115 -50 -166 -89 -184zM208 347c52 0 79 47 79 114c0 68 -27 114 -79 114h-47v-228h47z" />
    <glyph glyph-name="S" unicode="S" horiz-adv-x="378" 
d="M175 -12c-67 0 -120 22 -159 64l47 82c26 -34 68 -53 106 -53c43 0 75 35 75 86c0 133 -210 137 -210 334c0 98 66 177 172 177c52 0 100 -18 134 -51l-42 -80c-25 26 -55 38 -89 38c-39 0 -69 -31 -69 -78c0 -116 210 -135 210 -334c0 -107 -69 -185 -175 -185z" />
    <glyph glyph-name="T" unicode="T" horiz-adv-x="347" 
d="M225 0h-104v575h-103v92h311v-92h-104v-575z" />
    <glyph glyph-name="U" unicode="U" horiz-adv-x="464" 
d="M232 -12c-94 0 -175 59 -175 196v483h104v-488c0 -73 28 -99 71 -99c42 0 71 26 71 99v488h104v-483c0 -137 -81 -196 -175 -196z" />
    <glyph glyph-name="V" unicode="V" horiz-adv-x="398" 
d="M259 0h-120l-136 667h107l89 -532l89 532h107z" />
    <glyph glyph-name="W" unicode="W" horiz-adv-x="587" 
d="M462 0h-107l-62 466l-61 -466h-107l-111 667h107l62 -483l68 483h85l69 -483l61 483h107z" />
    <glyph glyph-name="X" unicode="X" horiz-adv-x="408" 
d="M408 0h-116l-88 246l-88 -246h-115l143 340l-135 327h115l80 -235l80 235h116l-136 -327z" />
    <glyph glyph-name="Y" unicode="Y" horiz-adv-x="405" 
d="M255 0h-104v279l-154 388h112l94 -285l95 285h110l-153 -388v-279z" />
    <glyph glyph-name="Z" unicode="Z" horiz-adv-x="360" 
d="M330 0h-299v89l175 486h-175v92h292v-85l-178 -490h185v-92z" />
    <glyph glyph-name="bracketleft" unicode="[" horiz-adv-x="195" 
d="M177 -190h-142v868h142v-66h-72v-736h72v-66z" />
    <glyph glyph-name="backslash" unicode="\" horiz-adv-x="216" 
d="M148 -20l-147 707h68l147 -707h-68z" />
    <glyph glyph-name="bracketright" unicode="]" horiz-adv-x="195" 
d="M160 -190h-143v66h73v736h-73v66h143v-868z" />
    <glyph glyph-name="asciicircum" unicode="^" horiz-adv-x="334" 
d="M315 333h-70l-78 257l-78 -257h-70l113 334h70z" />
    <glyph glyph-name="underscore" unicode="_" horiz-adv-x="279" 
d="M282 -106h-285v66h285v-66z" />
    <glyph glyph-name="grave" unicode="`" horiz-adv-x="164" 
d="M164 556h-61l-103 144h85z" />
    <glyph glyph-name="braceleft" unicode="{" horiz-adv-x="212" 
d="M195 -190h-29c-56 0 -109 45 -109 112v225c0 37 -17 68 -52 68v58c35 0 52 31 52 68v224c0 67 53 113 109 113h29v-66h-29c-21 0 -39 -19 -39 -47v-232c0 -42 -12 -75 -45 -89c33 -14 45 -47 45 -89v-233c0 -27 18 -47 39 -47h29v-65z" />
    <glyph glyph-name="bar" unicode="|" horiz-adv-x="179" 
d="M122 -20h-65v707h65v-707z" />
    <glyph glyph-name="braceright" unicode="}" horiz-adv-x="212" 
d="M17 -190v65h29c22 0 39 20 39 47v233c0 42 12 75 45 89c-33 14 -45 47 -45 89v232c0 28 -17 47 -39 47h-29v66h29c56 0 109 -46 109 -113v-224c0 -37 17 -68 52 -68v-58c-35 0 -52 -31 -52 -68v-225c0 -67 -53 -112 -109 -112h-29z" />
    <glyph glyph-name="asciitilde" unicode="~" horiz-adv-x="407" 
d="M313 667l67 -6c-5 -98 -18 -242 -116 -242c-102 0 -72 185 -121 185c-32 0 -39 -53 -49 -186l-67 7c5 98 19 241 116 241c102 0 73 -186 121 -186c32 0 39 52 49 187z" />
    <glyph glyph-name="Adieresis" unicode="&#xc4;" horiz-adv-x="398" 
d="M330 778c0 -30 -25 -54 -54 -54c-30 0 -54 24 -54 54c0 29 24 53 54 53c29 0 54 -24 54 -53zM176 778c0 -30 -24 -54 -54 -54c-29 0 -54 24 -54 54c0 29 25 53 54 53c30 0 54 -24 54 -53zM395 0h-107l-23 136h-132l-23 -136h-107l136 667h120zM253 228l-54 320l-54 -320
h108z" />
    <glyph glyph-name="Aring" unicode="&#xc5;" horiz-adv-x="398" 
d="M200 693c-48 0 -87 39 -87 86c0 48 39 87 87 87c47 0 85 -39 85 -87c0 -47 -38 -86 -85 -86zM200 737c23 0 42 19 42 42c0 24 -19 43 -42 43c-24 0 -43 -19 -43 -43c0 -23 19 -42 43 -42zM395 0h-107l-23 136h-132l-23 -136h-107l136 667h120zM253 228l-54 320l-54 -320
h108z" />
    <glyph glyph-name="Ccedilla" unicode="&#xc7;" horiz-adv-x="412" 
d="M225 -189c-33 0 -62 14 -82 31l20 41c20 -17 39 -27 60 -27c24 0 44 15 44 38c0 18 -10 30 -26 30c-12 0 -20 -5 -27 -13l-37 21l22 59c-115 21 -163 161 -163 342c0 197 57 345 194 345c98 0 134 -77 155 -145l-84 -31c-15 51 -32 83 -71 83c-64 0 -87 -107 -87 -252
s23 -252 87 -252c44 0 62 43 72 99l85 -31c-17 -70 -52 -150 -139 -160l-15 -39c9 7 16 10 29 10c31 0 56 -27 56 -67c0 -49 -40 -82 -93 -82z" />
    <glyph glyph-name="Eacute" unicode="&#xc9;" horiz-adv-x="367" 
d="M303 872l-103 -144h-61l79 144h85zM330 0h-273v667h273v-92h-169v-189h162v-92h-162v-202h169v-92z" />
    <glyph glyph-name="Ntilde" unicode="&#xd1;" horiz-adv-x="463" 
d="M272 726c-54 0 -51 83 -82 83c-19 0 -32 -23 -32 -77h-50c0 76 27 134 80 134c54 0 50 -83 82 -83c19 0 31 23 31 77h50c0 -76 -26 -134 -79 -134zM407 0h-99l-147 426v-426h-104v667h104l141 -415v415h105v-667z" />
    <glyph glyph-name="Odieresis" unicode="&#xd6;" horiz-adv-x="459" 
d="M361 778c0 -30 -25 -54 -54 -54c-30 0 -54 24 -54 54c0 29 24 53 54 53c29 0 54 -24 54 -53zM207 778c0 -30 -24 -54 -54 -54c-29 0 -54 24 -54 54c0 29 25 53 54 53c30 0 54 -24 54 -53zM229 -12c-138 0 -193 152 -193 345c0 194 55 345 193 345
c139 0 194 -151 194 -345c0 -193 -55 -345 -194 -345zM229 81c65 0 87 113 87 252c0 141 -22 252 -87 252c-64 0 -86 -111 -86 -252c0 -139 22 -252 86 -252z" />
    <glyph glyph-name="Udieresis" unicode="&#xdc;" horiz-adv-x="464" 
d="M363 778c0 -30 -25 -54 -54 -54c-30 0 -54 24 -54 54c0 29 24 53 54 53c29 0 54 -24 54 -53zM209 778c0 -30 -24 -54 -54 -54c-29 0 -54 24 -54 54c0 29 25 53 54 53c30 0 54 -24 54 -53zM232 -12c-94 0 -175 59 -175 196v483h104v-488c0 -73 28 -99 71 -99
c42 0 71 26 71 99v488h104v-483c0 -137 -81 -196 -175 -196z" />
    <glyph glyph-name="dagger" unicode="&#x2020;" horiz-adv-x="268" 
d="M246 528l-89 4l4 -205h-55l5 205l-89 -4v50l89 -3l-5 102h55l-4 -102l89 3v-50z" />
    <glyph glyph-name="degree" unicode="&#xb0;" horiz-adv-x="298" 
d="M275 550c0 -70 -57 -126 -127 -126s-126 56 -126 126s56 127 126 127s127 -57 127 -127zM220 550c0 39 -33 72 -72 72s-70 -33 -70 -72s31 -70 70 -70s72 31 72 70z" />
    <glyph glyph-name="section" unicode="&#xa7;" horiz-adv-x="331" 
d="M308 308c0 -46 -22 -93 -71 -119c50 -37 71 -78 71 -132c0 -76 -61 -138 -146 -138c-63 0 -110 21 -146 62l41 63c16 -21 54 -54 97 -54c41 0 65 31 65 65c0 101 -187 89 -187 246c0 51 30 98 82 113c-62 42 -82 87 -82 138c0 75 61 125 135 125c67 0 105 -22 137 -57
l-40 -57c-30 34 -56 46 -88 46c-34 0 -56 -24 -56 -57c0 -93 188 -87 188 -244zM225 288c0 50 -28 78 -51 94c-47 -10 -59 -41 -59 -66c0 -37 17 -66 65 -96c32 16 45 42 45 68z" />
    <glyph glyph-name="bullet" unicode="&#x2022;" horiz-adv-x="358" 
d="M292 242c0 -61 -50 -111 -112 -111s-112 50 -112 111c0 62 50 112 112 112s112 -50 112 -112z" />
    <glyph glyph-name="paragraph" unicode="&#xb6;" horiz-adv-x="449" 
d="M387 -100h-51v716h-86v-716h-51v423c-95 0 -172 77 -172 172s77 172 172 172h188v-767z" />
    <glyph glyph-name="registered" unicode="&#xae;" horiz-adv-x="494" 
d="M459 465c0 -117 -94 -212 -212 -212c-117 0 -212 95 -212 212c0 118 95 212 212 212c118 0 212 -94 212 -212zM429 465c0 102 -81 182 -182 182s-182 -80 -182 -182c0 -100 81 -182 182 -182s182 82 182 182zM346 343h-41l-63 96h-43v-96h-33v243h99c41 0 78 -29 78 -74
c0 -54 -48 -72 -62 -72zM309 512c0 27 -23 45 -44 45h-66v-88h66c21 0 44 18 44 43z" />
    <glyph glyph-name="copyright" unicode="&#xa9;" horiz-adv-x="778" 
d="M734 334c0 -190 -155 -345 -345 -345s-345 155 -345 345s155 345 345 345s345 -155 345 -345zM701 334c0 171 -141 312 -312 312s-312 -141 -312 -312s141 -312 312 -312s312 141 312 312zM512 215l28 -26c-36 -42 -85 -67 -147 -67c-116 0 -209 92 -209 212
c0 124 93 213 209 213c62 0 111 -25 146 -66l-27 -27c-26 35 -72 58 -119 58c-90 0 -169 -71 -169 -178c0 -102 79 -177 169 -177c48 0 93 23 119 58z" />
    <glyph glyph-name="trademark" unicode="&#x2122;" horiz-adv-x="374" 
d="M339 447h-28v182l-55 -182h-8l-55 182v-182h-28v220h43l44 -157l44 157h43v-220zM129 641h-42v-194h-28v194h-42v26h112v-26z" />
    <glyph glyph-name="acute" unicode="&#xb4;" horiz-adv-x="164" 
d="M164 700l-103 -144h-61l79 144h85z" />
    <glyph glyph-name="dieresis" unicode="&#xa8;" horiz-adv-x="272" 
d="M267 607c0 -30 -25 -54 -54 -54c-30 0 -54 24 -54 54c0 29 24 53 54 53c29 0 54 -24 54 -53zM113 607c0 -30 -24 -54 -54 -54c-29 0 -54 24 -54 54c0 29 25 53 54 53c30 0 54 -24 54 -53z" />
    <glyph glyph-name="notequal" unicode="&#x2260;" 
d="M113 93h-46l47 114h-85v62h111l54 130h-165v62h191l47 113h47l-47 -113h85v-62h-111l-55 -130h166v-62h-192z" />
    <glyph glyph-name="AE" unicode="&#xc6;" horiz-adv-x="584" 
d="M548 0h-273v136h-119l-41 -136h-106l221 667h318v-92h-168v-189h161v-92h-161v-202h168v-92zM275 228v320l-94 -320h94z" />
    <glyph glyph-name="Oslash" unicode="&#xd8;" horiz-adv-x="459" 
d="M229 -12c-43 0 -78 14 -105 40l-13 -28h-64l37 82c-34 62 -48 151 -48 251c0 194 55 345 193 345c43 0 78 -15 106 -41l14 30h64l-38 -83c33 -63 48 -151 48 -251c0 -193 -55 -345 -194 -345zM143 333c0 -39 1 -76 5 -109l140 310c-13 32 -32 51 -59 51
c-64 0 -86 -111 -86 -252zM229 81c65 0 87 113 87 252c0 38 -2 75 -6 107l-140 -309c14 -32 33 -50 59 -50z" />
    <glyph glyph-name="infinity" unicode="&#x221e;" horiz-adv-x="488" 
d="M141 166c-79 0 -112 87 -112 169c0 83 33 170 112 170c51 0 83 -47 103 -104c19 57 56 103 103 103c79 0 112 -87 112 -169s-33 -169 -112 -169c-47 0 -84 46 -103 104c-20 -58 -52 -104 -103 -104zM337 228c39 0 61 44 61 107c0 64 -22 108 -61 108
c-33 0 -54 -53 -66 -108c12 -54 33 -107 66 -107zM151 228c34 0 54 53 67 107c-13 55 -33 108 -67 108c-39 0 -62 -44 -62 -108c0 -63 23 -107 62 -107z" />
    <glyph glyph-name="plusminus" unicode="&#xb1;" 
d="M352 306h-128v-149h-67v149h-128v62h128v143h67v-143h128v-62zM352 35h-323v61h323v-61z" />
    <glyph glyph-name="lessequal" unicode="&#x2264;" 
d="M352 158l-323 143v67l323 143v-73l-249 -104l249 -102v-74zM352 35h-323v61h323v-61z" />
    <glyph glyph-name="greaterequal" unicode="&#x2265;" 
d="M352 301l-323 -143v74l249 102l-249 104v73l323 -143v-67zM352 35h-323v61h323v-61z" />
    <glyph glyph-name="mu" unicode="&#xb5;" horiz-adv-x="402" 
d="M144 -184h-94v667h94v-357c0 -37 14 -56 41 -56c32 0 60 34 73 69v344h94v-483h-94v63c-20 -40 -64 -75 -111 -75h-3v-172z" />
    <glyph glyph-name="partialdiff" unicode="&#x2202;" horiz-adv-x="402" 
d="M201 -12c-120 0 -170 116 -170 243s46 241 145 241c47 0 73 -29 89 -65c-15 80 -51 173 -96 236l80 38c78 -121 121 -264 121 -439c0 -138 -49 -254 -169 -254zM201 71c56 0 72 78 72 160c0 80 -16 158 -72 158s-72 -78 -72 -158c0 -82 16 -160 72 -160z" />
    <glyph glyph-name="summation" unicode="&#x2211;" horiz-adv-x="347" 
d="M146 575l113 -277l-116 -296h173v-92h-278v96l114 293l-114 276v92h278v-92h-170z" />
    <glyph glyph-name="product" unicode="&#x220f;" horiz-adv-x="477" 
d="M407 -90h-104v665h-129v-665h-104v665h-52v92h441v-92h-52v-665z" />
    <glyph glyph-name="pi" unicode="&#x3c0;" horiz-adv-x="394" 
d="M338 0h-95v417h-93v-417h-95v417h-37v83h358v-83h-38v-417z" />
    <glyph glyph-name="integral" unicode="&#x222b;" horiz-adv-x="240" 
d="M46 -100h-29v65h29c22 0 39 20 39 47v643c0 67 53 113 109 113h29v-66h-29c-21 0 -39 -19 -39 -47v-643c0 -67 -53 -112 -109 -112z" />
    <glyph glyph-name="ordfeminine" unicode="&#xaa;" horiz-adv-x="292" 
d="M251 326h-70v32c-14 -24 -39 -40 -70 -40c-50 0 -89 38 -89 103c0 66 39 103 89 103c31 0 56 -14 70 -37v45c0 41 -19 61 -52 61c-20 0 -44 -10 -67 -36l-27 47c30 31 74 44 108 44c69 0 108 -35 108 -113v-209zM135 365c19 0 36 9 46 33v50c-10 25 -27 34 -46 34
c-28 0 -43 -26 -43 -59s15 -58 43 -58z" />
    <glyph glyph-name="ordmasculine" unicode="&#xba;" horiz-adv-x="300" 
d="M150 318c-83 0 -123 78 -123 165s40 165 123 165c84 0 123 -78 123 -165s-39 -165 -123 -165zM150 375c40 0 50 49 50 108s-10 107 -50 107c-39 0 -51 -48 -51 -107s12 -108 51 -108z" />
    <glyph glyph-name="Omega" unicode="&#x2126;" horiz-adv-x="447" 
d="M40 0v92h83c-54 53 -93 143 -93 262c0 194 61 324 194 324c132 0 194 -129 194 -324c0 -119 -40 -209 -94 -262h83v-92h-153v92c26 18 56 114 56 241c0 159 -26 251 -86 251s-87 -92 -87 -251c0 -128 30 -225 57 -241v-92h-154z" />
    <glyph glyph-name="logicalnot" unicode="&#xac;" 
d="M352 461v-254h-64v192h-259v62h323z" />
    <glyph glyph-name="radical" unicode="&#x221a;" horiz-adv-x="465" 
d="M289 0h-68l-68 309l-102 -21l-11 61l158 31l58 -285l128 572h63z" />
    <glyph glyph-name="approxequal" unicode="&#x2248;" 
d="M29 207v66c24 -13 54 -20 81 -20c69 0 82 34 161 34c29 0 58 -5 81 -15v-65c-24 13 -55 19 -81 19c-69 0 -83 -35 -161 -35c-29 0 -58 6 -81 16zM29 396v65c24 -13 54 -19 81 -19c69 0 82 34 161 34c29 0 58 -5 81 -15v-66c-24 13 -55 19 -81 19c-69 0 -83 -34 -161 -34
c-29 0 -58 6 -81 16z" />
    <glyph glyph-name="Delta" unicode="&#x2206;" horiz-adv-x="421" 
d="M418 0h-415l147 667h121zM297 92l-87 456l-86 -456h173z" />
    <glyph glyph-name="guillemotleft" unicode="&#xab;" horiz-adv-x="359" 
d="M329 63h-75l-90 180l90 177h75l-90 -177zM195 63h-75l-90 180l90 177h75l-90 -177z" />
    <glyph glyph-name="guillemotright" unicode="&#xbb;" horiz-adv-x="359" 
d="M195 243l-90 -180h-75l90 180l-90 177h75zM329 243l-90 -180h-75l90 180l-90 177h75z" />
    <glyph glyph-name="ellipsis" unicode="&#x2026;" horiz-adv-x="717" 
d="M184 54c0 -35 -29 -65 -65 -65c-35 0 -64 30 -64 65s29 64 64 64c36 0 65 -29 65 -64zM423 54c0 -35 -29 -65 -65 -65c-35 0 -64 30 -64 65s29 64 64 64c36 0 65 -29 65 -64zM662 54c0 -35 -29 -65 -65 -65c-35 0 -64 30 -64 65s29 64 64 64c36 0 65 -29 65 -64z" />
    <glyph glyph-name="uni00A0" unicode="&#xa0;" horiz-adv-x="165" 
 />
    <glyph glyph-name="Agrave" unicode="&#xc0;" horiz-adv-x="398" 
d="M258 728h-61l-103 144h85zM395 0h-107l-23 136h-132l-23 -136h-107l136 667h120zM253 228l-54 320l-54 -320h108z" />
    <glyph glyph-name="Atilde" unicode="&#xc3;" horiz-adv-x="398" 
d="M242 726c-54 0 -51 83 -82 83c-19 0 -32 -23 -32 -77h-50c0 76 27 134 80 134c54 0 50 -83 82 -83c19 0 31 23 31 77h50c0 -76 -26 -134 -79 -134zM395 0h-107l-23 136h-132l-23 -136h-107l136 667h120zM253 228l-54 320l-54 -320h108z" />
    <glyph glyph-name="Otilde" unicode="&#xd5;" horiz-adv-x="459" 
d="M273 726c-54 0 -51 83 -82 83c-19 0 -32 -23 -32 -77h-50c0 76 27 134 80 134c54 0 50 -83 82 -83c19 0 31 23 31 77h50c0 -76 -26 -134 -79 -134zM229 -12c-138 0 -193 152 -193 345c0 194 55 345 193 345c139 0 194 -151 194 -345c0 -193 -55 -345 -194 -345zM229 81
c65 0 87 113 87 252c0 141 -22 252 -87 252c-64 0 -86 -111 -86 -252c0 -139 22 -252 86 -252z" />
    <glyph glyph-name="OE" unicode="&#x152;" horiz-adv-x="616" 
d="M580 0h-273v57c-24 -53 -66 -69 -97 -69c-126 0 -174 152 -174 345c0 194 48 344 174 344c31 0 73 -15 97 -67v57h273v-92h-168v-189h161v-92h-161v-202h168v-92zM307 185v296c-14 67 -42 103 -77 103c-67 0 -87 -110 -87 -251c0 -140 20 -252 87 -252c35 0 63 38 77 104
z" />
    <glyph glyph-name="endash" unicode="&#x2013;" horiz-adv-x="460" 
d="M430 201h-400v82h400v-82z" />
    <glyph glyph-name="emdash" unicode="&#x2014;" horiz-adv-x="640" 
d="M610 201h-580v82h580v-82z" />
    <glyph glyph-name="quotedblleft" unicode="&#x201c;" horiz-adv-x="416" 
d="M52 515c0 66 37 126 88 162l44 -35c-32 -20 -63 -60 -69 -94c2 1 9 3 15 3c31 0 55 -25 55 -59s-27 -63 -62 -63c-38 0 -71 31 -71 86zM227 515c0 66 38 126 89 162l44 -35c-32 -20 -64 -60 -69 -94c2 1 9 3 15 3c31 0 55 -25 55 -59s-28 -63 -62 -63
c-38 0 -72 31 -72 86z" />
    <glyph glyph-name="quotedblright" unicode="&#x201d;" horiz-adv-x="416" 
d="M365 591c0 -66 -37 -126 -89 -162l-44 35c32 20 64 60 69 94c-2 -1 -9 -3 -15 -3c-31 0 -55 25 -55 59s28 63 63 63c38 0 71 -31 71 -86zM189 591c0 -66 -37 -126 -89 -162l-43 35c32 20 63 60 69 94c-2 -1 -10 -3 -15 -3c-32 0 -56 25 -56 59s28 63 63 63
c38 0 71 -31 71 -86z" />
    <glyph glyph-name="quoteleft" unicode="&#x2018;" horiz-adv-x="241" 
d="M51 515c0 66 37 126 89 162l44 -35c-32 -20 -64 -60 -70 -94c3 1 10 3 16 3c31 0 55 -25 55 -59s-28 -63 -63 -63c-38 0 -71 31 -71 86z" />
    <glyph glyph-name="quoteright" unicode="&#x2019;" horiz-adv-x="241" 
d="M189 591c0 -66 -37 -126 -89 -162l-43 35c32 20 63 60 69 94c-2 -1 -10 -3 -15 -3c-32 0 -56 25 -56 59s28 63 63 63c38 0 71 -31 71 -86z" />
    <glyph glyph-name="divide" unicode="&#xf7;" horiz-adv-x="374" 
d="M239 480c0 -28 -23 -52 -51 -52s-51 24 -51 52s23 51 51 51s51 -23 51 -51zM345 306h-316v62h316v-62zM239 191c0 -28 -23 -51 -51 -51s-51 23 -51 51c0 29 23 52 51 52s51 -23 51 -52z" />
    <glyph glyph-name="lozenge" unicode="&#x25ca;" horiz-adv-x="375" 
d="M198 0h-21l-158 334l158 333h21l158 -333zM188 41l132 293l-133 292l-132 -292z" />
    <glyph glyph-name="Ydieresis" unicode="&#x178;" horiz-adv-x="405" 
d="M336 778c0 -30 -25 -54 -54 -54c-30 0 -54 24 -54 54c0 29 24 53 54 53c29 0 54 -24 54 -53zM182 778c0 -30 -24 -54 -54 -54c-29 0 -54 24 -54 54c0 29 25 53 54 53c30 0 54 -24 54 -53zM255 0h-104v279l-154 388h112l94 -285l95 285h110l-153 -388v-279z" />
    <glyph glyph-name="fraction" unicode="&#x2044;" horiz-adv-x="125" 
d="M224 667l-277 -667h-46l276 667h47z" />
    <glyph glyph-name="guilsinglleft" unicode="&#x2039;" horiz-adv-x="225" 
d="M195 63h-75l-90 180l90 177h75l-90 -177z" />
    <glyph glyph-name="guilsinglright" unicode="&#x203a;" horiz-adv-x="225" 
d="M195 243l-90 -180h-75l90 180l-90 177h75z" />
    <glyph glyph-name="daggerdbl" unicode="&#x2021;" horiz-adv-x="268" 
d="M246 578v-50l-89 4v-206l89 4v-50l-89 3l4 -103h-55l4 103l-88 -3v50l88 -4v206l-88 -4v50l88 -3l-4 102h55l-4 -102z" />
    <glyph glyph-name="periodcentered" unicode="&#xb7;" horiz-adv-x="239" 
d="M184 245c0 -35 -29 -65 -65 -65c-35 0 -64 30 -64 65c0 34 29 64 64 64c36 0 65 -30 65 -64z" />
    <glyph glyph-name="quotesinglbase" unicode="&#x201a;" horiz-adv-x="241" 
d="M189 32c0 -66 -37 -126 -89 -162l-43 35c32 20 63 60 69 94c-2 -1 -10 -2 -15 -2c-32 0 -56 24 -56 58s28 63 63 63c38 0 71 -31 71 -86z" />
    <glyph glyph-name="quotedblbase" unicode="&#x201e;" horiz-adv-x="416" 
d="M189 32c0 -66 -37 -126 -89 -162l-43 35c32 20 63 60 69 94c-2 -1 -10 -2 -15 -2c-32 0 -56 24 -56 58s28 63 63 63c38 0 71 -31 71 -86zM365 32c0 -66 -37 -126 -89 -162l-44 35c32 20 64 60 69 94c-2 -1 -9 -2 -15 -2c-31 0 -55 24 -55 58s28 63 63 63
c38 0 71 -31 71 -86z" />
    <glyph glyph-name="Acircumflex" unicode="&#xc2;" horiz-adv-x="398" 
d="M308 728h-53l-57 98l-53 -98h-54l64 144h87zM395 0h-107l-23 136h-132l-23 -136h-107l136 667h120zM253 228l-54 320l-54 -320h108z" />
    <glyph glyph-name="Ecircumflex" unicode="&#xca;" horiz-adv-x="367" 
d="M303 728h-53l-57 98l-53 -98h-54l64 144h87zM330 0h-273v667h273v-92h-169v-189h162v-92h-162v-202h169v-92z" />
    <glyph glyph-name="Aacute" unicode="&#xc1;" horiz-adv-x="398" 
d="M306 872l-103 -144h-61l79 144h85zM395 0h-107l-23 136h-132l-23 -136h-107l136 667h120zM253 228l-54 320l-54 -320h108z" />
    <glyph glyph-name="Edieresis" unicode="&#xcb;" horiz-adv-x="367" 
d="M326 778c0 -30 -25 -54 -54 -54c-30 0 -54 24 -54 54c0 29 24 53 54 53c29 0 54 -24 54 -53zM172 778c0 -30 -24 -54 -54 -54c-29 0 -54 24 -54 54c0 29 25 53 54 53c30 0 54 -24 54 -53zM330 0h-273v667h273v-92h-169v-189h162v-92h-162v-202h169v-92z" />
    <glyph glyph-name="Egrave" unicode="&#xc8;" horiz-adv-x="367" 
d="M255 728h-61l-103 144h85zM330 0h-273v667h273v-92h-169v-189h162v-92h-162v-202h169v-92z" />
    <glyph glyph-name="Iacute" unicode="&#xcd;" horiz-adv-x="218" 
d="M217 872l-103 -144h-61l79 144h85zM161 0h-104v667h104v-667z" />
    <glyph glyph-name="Icircumflex" unicode="&#xce;" horiz-adv-x="218" 
d="M218 728h-53l-57 98l-53 -98h-54l64 144h87zM161 0h-104v667h104v-667z" />
    <glyph glyph-name="Idieresis" unicode="&#xcf;" horiz-adv-x="218" 
d="M242 777c0 -30 -25 -54 -54 -54c-30 0 -54 24 -54 54c0 29 24 53 54 53c29 0 54 -24 54 -53zM88 777c0 -30 -24 -54 -54 -54c-29 0 -54 24 -54 54c0 29 25 53 54 53c30 0 54 -24 54 -53zM161 0h-104v667h104v-667z" />
    <glyph glyph-name="Igrave" unicode="&#xcc;" horiz-adv-x="218" 
d="M167 728h-61l-103 144h85zM161 0h-104v667h104v-667z" />
    <glyph glyph-name="Oacute" unicode="&#xd3;" horiz-adv-x="459" 
d="M336 872l-103 -144h-61l79 144h85zM229 -12c-138 0 -193 152 -193 345c0 194 55 345 193 345c139 0 194 -151 194 -345c0 -193 -55 -345 -194 -345zM229 81c65 0 87 113 87 252c0 141 -22 252 -87 252c-64 0 -86 -111 -86 -252c0 -139 22 -252 86 -252z" />
    <glyph glyph-name="Ocircumflex" unicode="&#xd4;" horiz-adv-x="459" 
d="M339 728h-53l-57 98l-53 -98h-54l64 144h87zM229 -12c-138 0 -193 152 -193 345c0 194 55 345 193 345c139 0 194 -151 194 -345c0 -193 -55 -345 -194 -345zM229 81c65 0 87 113 87 252c0 141 -22 252 -87 252c-64 0 -86 -111 -86 -252c0 -139 22 -252 86 -252z" />
    <glyph glyph-name="apple" unicode="&#xf8ff;" horiz-adv-x="667" 
d="M224 154v71h-71c-39 0 -70 -32 -70 -71c0 -40 31 -72 70 -72s71 32 71 72zM224 442v72c0 39 -31 71 -70 71c-40 0 -71 -32 -71 -71s31 -72 71 -72h70zM265 265h137v137h-137v-137zM584 154c0 39 -31 71 -70 71h-71v-71c0 -40 32 -72 71 -72s70 32 70 72zM584 514
c0 39 -31 71 -70 71s-71 -32 -71 -71v-72h71c39 0 70 33 70 72zM625 154c0 -61 -50 -112 -111 -112s-112 51 -112 112v71h-137v-71c0 -61 -51 -112 -112 -112s-111 51 -111 112s50 111 111 111h71v137h-70c-61 0 -112 51 -112 112s51 111 112 111s111 -50 111 -111v-72h137
v72c0 61 51 111 112 111s111 -50 111 -111s-50 -112 -111 -112h-71v-137h71c61 0 111 -50 111 -111z" />
    <glyph glyph-name="Ograve" unicode="&#xd2;" horiz-adv-x="459" 
d="M287 728h-61l-103 144h85zM229 -12c-138 0 -193 152 -193 345c0 194 55 345 193 345c139 0 194 -151 194 -345c0 -193 -55 -345 -194 -345zM229 81c65 0 87 113 87 252c0 141 -22 252 -87 252c-64 0 -86 -111 -86 -252c0 -139 22 -252 86 -252z" />
    <glyph glyph-name="Uacute" unicode="&#xda;" horiz-adv-x="464" 
d="M339 872l-103 -144h-61l79 144h85zM232 -12c-94 0 -175 59 -175 196v483h104v-488c0 -73 28 -99 71 -99c42 0 71 26 71 99v488h104v-483c0 -137 -81 -196 -175 -196z" />
    <glyph glyph-name="Ucircumflex" unicode="&#xdb;" horiz-adv-x="464" 
d="M341 728h-53l-57 98l-53 -98h-54l64 144h87zM232 -12c-94 0 -175 59 -175 196v483h104v-488c0 -73 28 -99 71 -99c42 0 71 26 71 99v488h104v-483c0 -137 -81 -196 -175 -196z" />
    <glyph glyph-name="Ugrave" unicode="&#xd9;" horiz-adv-x="464" 
d="M290 728h-61l-103 144h85zM232 -12c-94 0 -175 59 -175 196v483h104v-488c0 -73 28 -99 71 -99c42 0 71 26 71 99v488h104v-483c0 -137 -81 -196 -175 -196z" />
    <glyph glyph-name="dotlessi" unicode="&#x131;" horiz-adv-x="198" 
d="M148 0h-98v550h98v-550z" />
    <glyph glyph-name="circumflex" unicode="&#x2c6;" horiz-adv-x="217" 
d="M217 556h-53l-57 98l-53 -98h-54l64 144h87z" />
    <glyph glyph-name="tilde" unicode="&#x2dc;" horiz-adv-x="243" 
d="M164 554c-54 0 -51 83 -82 83c-19 0 -32 -23 -32 -77h-50c0 76 27 134 80 134c54 0 50 -83 82 -83c19 0 31 23 31 77h50c0 -76 -26 -134 -79 -134z" />
    <glyph glyph-name="macron" unicode="&#xaf;" horiz-adv-x="254" 
d="M254 591h-254v57h254v-57z" />
    <glyph glyph-name="breve" unicode="&#x2d8;" horiz-adv-x="244" 
d="M244 622c-28 -38 -72 -61 -122 -61c-49 0 -94 23 -122 61l46 35c16 -25 47 -40 76 -40c30 0 60 15 76 40z" />
    <glyph glyph-name="dotaccent" unicode="&#x2d9;" horiz-adv-x="134" 
d="M67 566c-29 0 -54 24 -54 54s25 54 54 54c30 0 54 -24 54 -54s-24 -54 -54 -54z" />
    <glyph glyph-name="ring" unicode="&#x2da;" horiz-adv-x="172" 
d="M87 552c-48 0 -87 39 -87 86c0 48 39 87 87 87c47 0 85 -39 85 -87c0 -47 -38 -86 -85 -86zM87 596c23 0 42 19 42 42c0 24 -19 43 -42 43c-24 0 -43 -19 -43 -43c0 -23 19 -42 43 -42z" />
    <glyph glyph-name="cedilla" unicode="&#xb8;" horiz-adv-x="175" 
d="M82 -193c-33 0 -62 14 -82 31l20 41c20 -17 39 -27 60 -27c24 0 44 15 44 38c0 18 -10 30 -26 30c-12 0 -20 -5 -27 -13l-37 21l31 83h51l-26 -65c9 7 16 10 29 10c31 0 56 -27 56 -67c0 -49 -40 -82 -93 -82z" />
    <glyph glyph-name="hungarumlaut" unicode="&#x2dd;" horiz-adv-x="252" 
d="M129 700l-79 -144h-50l55 144h74zM252 700l-79 -144h-50l55 144h74z" />
    <glyph glyph-name="ogonek" unicode="&#x2db;" horiz-adv-x="148" 
d="M106 -111l42 -22c-11 -30 -33 -53 -72 -53c-45 0 -76 26 -76 79c0 49 27 95 74 132l38 -25c-37 -26 -61 -61 -61 -104c0 -27 11 -38 26 -38s25 12 29 31z" />
    <glyph glyph-name="caron" unicode="&#x2c7;" horiz-adv-x="217" 
d="M154 556h-87l-67 144h54l56 -98l54 98h53z" />
    <glyph glyph-name="perthousand" unicode="&#x2030;" horiz-adv-x="705" 
d="M230 424c0 -77 -41 -136 -106 -136s-106 59 -106 136s41 138 106 138s106 -61 106 -138zM454 126c0 -77 -42 -137 -106 -137c-65 0 -106 60 -106 137c0 78 41 138 106 138c64 0 106 -60 106 -138zM387 549l-247 -549h-46l247 549h46zM169 424c0 50 -16 86 -45 86
s-46 -36 -46 -86c0 -49 17 -84 46 -84s45 35 45 84zM394 126c0 50 -18 85 -46 85c-29 0 -47 -35 -47 -85c0 -48 18 -85 47 -85c28 0 46 37 46 85zM687 126c0 -77 -42 -137 -106 -137c-65 0 -106 60 -106 137c0 78 41 138 106 138c64 0 106 -60 106 -138zM627 126
c0 50 -18 85 -46 85c-29 0 -47 -35 -47 -85c0 -48 18 -85 47 -85c28 0 46 37 46 85z" />
    <glyph glyph-name="percent" unicode="%" horiz-adv-x="471" 
d="M230 424c0 -77 -41 -136 -106 -136s-106 59 -106 136s41 138 106 138s106 -61 106 -138zM454 126c0 -77 -42 -137 -106 -137c-65 0 -106 60 -106 137c0 78 41 138 106 138c64 0 106 -60 106 -138zM383 550l-248 -550h-46l248 550h46zM169 424c0 50 -16 86 -45 86
s-46 -36 -46 -86c0 -49 17 -84 46 -84s45 35 45 84zM394 126c0 50 -18 85 -46 85c-29 0 -47 -35 -47 -85c0 -48 18 -85 47 -85c28 0 46 37 46 85z" />
    <glyph glyph-name="Euro" unicode="&#x20ac;" horiz-adv-x="383" 
d="M234 308h-89v-33v-34h89v-50h-85c8 -70 29 -117 71 -117c32 0 50 27 61 71l79 -25c-20 -66 -53 -132 -140 -132c-102 0 -154 84 -170 203h-35v50h31c-1 11 -1 22 -1 34c0 11 0 22 1 33h-31v50h35c15 120 68 204 170 204c85 0 119 -62 140 -127l-79 -26
c-14 43 -31 67 -61 67c-42 0 -63 -48 -71 -118h85v-50z" />
    <glyph glyph-name="florin" unicode="&#x192;" horiz-adv-x="348" 
d="M132 -119h-106l72 328h-37v70h53l33 147c24 101 76 135 138 135c31 0 58 -11 73 -27l-40 -77c-5 8 -12 12 -24 12c-21 0 -34 -17 -44 -58l-29 -132h64v-70h-80z" />
    <glyph glyph-name="numbersign" unicode="#" 
d="M365 397l-12 -55h-52l-30 -131h53l-13 -55h-54l-35 -156h-67l38 156h-61l-36 -156h-67l37 156h-50l13 55h51l30 131h-51l12 55h52l35 153h67l-36 -153h60l36 153h65l-36 -153h51zM236 342h-61l-30 -131h60z" />
    <glyph glyph-name="sterling" unicode="&#xa3;" horiz-adv-x="335" 
d="M23 228v56h41c-14 36 -27 76 -27 123c0 94 69 154 145 154c64 0 114 -36 128 -100l-74 -28c-10 38 -27 57 -50 57c-29 0 -53 -33 -53 -84c0 -45 14 -84 28 -122h66v-56h-49c3 -15 5 -29 5 -44c0 -40 -23 -80 -39 -100c6 4 13 6 20 6c35 0 47 -21 76 -21c23 0 43 12 55 26
l30 -67c-18 -22 -53 -37 -92 -37c-57 0 -65 30 -101 30c-21 0 -46 -12 -68 -28l-29 61c38 25 65 65 65 109c0 22 -6 43 -13 65h-64z" />
    <glyph glyph-name="yen" unicode="&#xa5;" horiz-adv-x="358" 
d="M228 0h-98v111h-110v55h110v63h-110v55h87l-109 266h103l78 -222l78 222h103l-110 -266h88v-55h-110v-63h110v-55h-110v-111z" />
    <glyph glyph-name="cent" unicode="&#xa2;" horiz-adv-x="371" 
d="M242 -89h-69v81c-99 21 -140 137 -140 283s41 262 140 283v63h69v-63c60 -15 88 -68 106 -123l-79 -26c-9 26 -18 45 -31 56v-381c14 12 24 33 31 61l79 -25c-17 -57 -44 -114 -106 -128v-81zM133 275c0 -90 11 -163 44 -190v380c-33 -27 -44 -100 -44 -190z" />
    <glyph glyph-name="lslash" unicode="&#x142;" horiz-adv-x="325" 
d="M18 176v88l46 26v260h98v-203l63 36v-88l-63 -36v-174h145v-85h-243v202z" />
    <glyph glyph-name="oe" unicode="&#x153;" horiz-adv-x="549" 
d="M516 0h-243v47c-21 -47 -58 -59 -87 -59c-110 0 -153 127 -153 287s43 287 153 287c30 0 66 -13 87 -59v47h243v-86h-145v-140h139v-86h-139v-152h145v-86zM273 163v225c-10 55 -31 88 -65 88c-60 0 -75 -91 -75 -201c0 -109 15 -201 75 -201c34 0 55 34 65 89z" />
    <glyph glyph-name="scaron" unicode="&#x161;" horiz-adv-x="335" 
d="M160 -12c-59 0 -102 17 -144 57l42 75c25 -31 60 -48 94 -48c33 0 60 25 60 68c0 102 -176 114 -176 277c0 82 56 145 148 145c50 0 87 -14 122 -44l-38 -75c-24 25 -49 35 -78 35c-30 0 -54 -23 -54 -61c0 -91 177 -108 177 -276c0 -89 -61 -153 -153 -153zM219 606h-87
l-67 144h54l56 -98l54 98h53z" />
    <glyph glyph-name="zcaron" unicode="&#x17e;" horiz-adv-x="309" 
d="M284 0h-259v75l143 390h-143v85h253v-73l-143 -392h149v-85zM197 606h-87l-67 144h54l56 -98l54 98h53z" />
    <glyph glyph-name="exclam" unicode="!" horiz-adv-x="191" 
d="M149 550l-16 -370h-74l-16 370h106zM161 54c0 -35 -30 -64 -65 -64s-65 29 -65 64s30 64 65 64s65 -29 65 -64z" />
    <glyph glyph-name="dollar" unicode="$" horiz-adv-x="335" 
d="M137 -74v63c-48 4 -85 21 -121 56l42 75c25 -31 60 -48 94 -48c33 0 60 25 60 68c0 102 -176 114 -176 277c0 67 37 121 101 139v72h70v-67c38 -4 69 -18 99 -43l-38 -75c-24 25 -49 35 -78 35c-30 0 -54 -23 -54 -61c0 -91 177 -108 177 -276c0 -73 -41 -129 -106 -147
v-68h-70z" />
    <glyph glyph-name="ampersand" unicode="&#x26;" horiz-adv-x="369" 
d="M373 0h-93c-9 13 -17 26 -25 38c-30 -31 -65 -49 -107 -49c-72 0 -124 57 -124 153c0 81 39 127 81 163c-19 45 -29 85 -29 118c0 86 48 139 109 139c53 0 104 -46 104 -116c0 -79 -48 -118 -95 -157c9 -19 19 -37 30 -56c12 -21 23 -40 33 -57c11 33 20 69 27 102
l68 -29c-12 -53 -29 -103 -51 -144c21 -31 43 -63 72 -105zM163 56c21 0 39 15 56 39c-17 28 -32 53 -46 79c-12 21 -24 41 -34 61c-18 -24 -30 -52 -30 -89c0 -57 28 -90 54 -90zM153 423c0 -21 4 -43 13 -68c27 25 47 51 47 89c0 36 -14 55 -28 55c-17 0 -32 -20 -32 -76z
" />
    <glyph glyph-name="zero" unicode="0" horiz-adv-x="436" 
d="M401 275c0 -134 -46 -287 -183 -287c-136 0 -182 153 -182 287c0 135 46 287 182 287s183 -152 183 -287zM293 275c0 86 -9 194 -75 194c-65 0 -75 -108 -75 -194c0 -85 9 -194 75 -194s75 109 75 194z" />
    <glyph glyph-name="one" unicode="1" horiz-adv-x="324" 
d="M267 0h-104v414l-95 -101l-61 64l169 173h91v-550z" />
    <glyph glyph-name="two" unicode="2" horiz-adv-x="409" 
d="M363 0h-317v88c170 145 219 231 219 292c0 51 -27 89 -69 89c-38 0 -71 -22 -97 -73l-69 56c40 70 92 110 173 110c101 0 168 -66 168 -166c0 -70 -39 -169 -185 -304h177v-92z" />
    <glyph glyph-name="three" unicode="3" horiz-adv-x="418" 
d="M203 -129c-84 0 -147 49 -179 110l73 60c22 -44 54 -77 101 -77c61 0 81 45 81 108c0 84 -48 106 -85 106c-14 0 -30 0 -39 -2v95c8 -1 27 -1 35 -1c50 0 82 32 82 96c0 70 -26 101 -74 101c-43 0 -76 -28 -96 -70l-70 55c37 71 101 108 171 108c99 0 172 -55 172 -179
c0 -69 -39 -137 -101 -153c62 -13 109 -81 109 -163c0 -114 -65 -194 -180 -194z" />
    <glyph glyph-name="four" unicode="4" horiz-adv-x="403" 
d="M388 45h-51v-162h-104v162h-218v94l199 411h123v-413h51v-92zM233 137v288l-132 -288h132z" />
    <glyph glyph-name="five" unicode="5" horiz-adv-x="423" 
d="M208 -129c-87 0 -138 41 -176 110l71 60c22 -49 53 -77 99 -77c52 0 81 61 81 127c0 85 -26 127 -73 127c-34 0 -57 -15 -83 -58l-78 22v368h311v-92h-207v-203c19 32 54 54 94 54c85 0 143 -75 143 -216c0 -123 -69 -222 -182 -222z" />
    <glyph glyph-name="six" unicode="6" horiz-adv-x="421" 
d="M223 -12c-143 0 -187 166 -187 345c0 188 62 344 204 344c58 0 109 -31 137 -80l-57 -73c-17 39 -40 60 -77 60c-73 0 -101 -123 -101 -235v-12c18 48 57 87 109 87c77 0 140 -72 140 -214c0 -121 -62 -222 -168 -222zM217 81c50 0 67 63 67 125c0 98 -32 128 -67 128
c-39 0 -62 -45 -75 -86c2 -64 12 -167 75 -167z" />
    <glyph glyph-name="seven" unicode="7" horiz-adv-x="364" 
d="M185 -117h-111l157 575h-212v92h326v-72z" />
    <glyph glyph-name="eight" unicode="8" horiz-adv-x="419" 
d="M210 -12c-116 0 -177 67 -177 176c0 84 56 155 109 180c-49 22 -101 81 -101 164c0 116 80 169 169 169c88 0 169 -53 169 -169c0 -83 -53 -142 -101 -164c52 -25 109 -96 109 -179c0 -110 -63 -177 -177 -177zM210 379c10 5 65 39 65 111c0 58 -22 94 -65 94
c-44 0 -66 -36 -66 -94c0 -72 55 -106 66 -111zM210 81c40 0 72 33 72 98c0 79 -58 124 -72 127c-15 -3 -72 -48 -72 -127c0 -65 30 -98 72 -98z" />
    <glyph glyph-name="nine" unicode="9" horiz-adv-x="421" 
d="M180 -128c-58 0 -108 31 -136 80l57 73c17 -39 40 -60 77 -60c69 0 101 118 101 235v12c-19 -48 -57 -87 -109 -87c-78 0 -140 72 -140 214c0 121 62 222 168 222c142 0 187 -166 187 -345c0 -188 -63 -344 -205 -344zM203 215c40 0 62 45 75 86c-1 64 -10 167 -73 167
c-51 0 -69 -63 -69 -125c0 -98 33 -128 67 -128z" />
    <glyph glyph-name="question" unicode="?" horiz-adv-x="281" 
d="M267 443c0 -107 -100 -128 -100 -204c0 -13 7 -28 16 -38l-73 -30c-15 20 -21 42 -21 67c0 89 81 109 81 183c0 28 -15 60 -48 60c-20 0 -36 -9 -49 -26l-46 55c29 34 74 52 118 52c77 0 122 -52 122 -119zM208 54c0 -35 -30 -64 -65 -64s-64 29 -64 64s29 64 64 64
s65 -29 65 -64z" />
    <glyph glyph-name="a" unicode="a" horiz-adv-x="347" 
d="M118 550h111l115 -550h-100l-18 110h-105l-18 -110h-101zM214 195l-41 242l-41 -242h82z" />
    <glyph glyph-name="b" unicode="b" horiz-adv-x="369" 
d="M205 0h-155v550h150c92 0 135 -61 135 -141c0 -66 -30 -108 -76 -124c51 -14 83 -72 83 -136c0 -86 -40 -149 -137 -149zM185 85c41 0 58 29 58 76c0 41 -17 77 -58 77h-37v-153h37zM182 324c40 0 53 30 53 70c0 37 -12 71 -53 71h-34v-141h34z" />
    <glyph glyph-name="c" unicode="c" horiz-adv-x="371" 
d="M208 -12c-124 0 -175 125 -175 287c0 163 51 287 175 287c85 0 119 -62 140 -127l-79 -26c-14 43 -31 67 -61 67c-57 0 -75 -87 -75 -201c0 -113 18 -201 75 -201c32 0 50 27 61 71l79 -25c-20 -66 -53 -132 -140 -132z" />
    <glyph glyph-name="d" unicode="d" horiz-adv-x="409" 
d="M187 0h-137v550h136c132 0 190 -118 190 -276s-57 -274 -189 -274zM186 85c61 0 91 74 91 189c0 119 -31 191 -91 191h-38v-380h38z" />
    <glyph glyph-name="e" unicode="e" horiz-adv-x="326" 
d="M293 0h-243v550h243v-85h-145v-141h139v-86h-139v-153h145v-85z" />
    <glyph glyph-name="f" unicode="f" horiz-adv-x="324" 
d="M148 0h-98v550h243v-85h-145v-141h139v-86h-139v-238z" />
    <glyph glyph-name="g" unicode="g" horiz-adv-x="391" 
d="M207 -12c-121 0 -174 119 -174 287c0 169 53 287 174 287c78 0 119 -56 140 -127l-78 -26c-12 38 -27 67 -62 67c-52 0 -74 -74 -74 -201c0 -126 22 -201 77 -201c24 0 42 10 53 27v112h-63v80h151v-234c-40 -48 -82 -71 -144 -71z" />
    <glyph glyph-name="h" unicode="h" horiz-adv-x="415" 
d="M364 0h-97v240h-119v-240h-98v550h98v-225h119v225h97v-550z" />
    <glyph glyph-name="i" unicode="i" horiz-adv-x="198" 
d="M148 0h-98v550h98v-550z" />
    <glyph glyph-name="j" unicode="j" horiz-adv-x="298" 
d="M101 -12c-35 0 -69 11 -96 36l28 78c16 -19 37 -28 57 -28c37 0 60 20 60 65v411h97v-422c0 -98 -59 -140 -146 -140z" />
    <glyph glyph-name="k" unicode="k" horiz-adv-x="397" 
d="M391 0h-111l-101 214l-31 -62v-152h-98v550h98v-250l125 250h107l-143 -260z" />
    <glyph glyph-name="l" unicode="l" horiz-adv-x="312" 
d="M293 0h-243v550h98v-465h145v-85z" />
    <glyph glyph-name="m" unicode="m" horiz-adv-x="519" 
d="M469 0h-96v364l-94 -364h-39l-92 364v-364h-98v550h123l87 -339l88 339h121v-550z" />
    <glyph glyph-name="n" unicode="n" horiz-adv-x="409" 
d="M359 0h-95l-116 350v-350h-98v550h101l111 -338v338h97v-550z" />
    <glyph glyph-name="o" unicode="o" horiz-adv-x="416" 
d="M207 -12c-124 0 -174 127 -174 287s50 287 174 287c125 0 175 -127 175 -287s-50 -287 -175 -287zM207 74c59 0 75 92 75 201c0 110 -16 201 -75 201c-58 0 -74 -91 -74 -201c0 -109 16 -201 74 -201z" />
    <glyph glyph-name="p" unicode="p" horiz-adv-x="363" 
d="M148 0h-98v550h142c104 0 152 -80 152 -172c0 -94 -48 -173 -152 -173h-44v-205zM181 290c43 0 63 38 63 87c0 50 -20 88 -63 88h-33v-175h33z" />
    <glyph glyph-name="q" unicode="q" horiz-adv-x="416" 
d="M207 -12c-124 0 -174 127 -174 287s50 287 174 287c125 0 175 -127 175 -287c0 -107 -23 -199 -75 -249l13 -33l-69 -27l-10 26c-11 -3 -22 -4 -34 -4zM207 74h3l-37 98l69 27l25 -66c11 37 15 87 15 142c0 110 -16 201 -75 201c-58 0 -74 -91 -74 -201
c0 -109 16 -201 74 -201z" />
    <glyph glyph-name="r" unicode="r" horiz-adv-x="380" 
d="M351 0h-106l-63 205h-34v-205h-98v550h143c98 0 151 -75 151 -171c0 -88 -39 -136 -75 -153zM181 290c43 0 63 38 63 88c0 49 -20 87 -63 87h-33v-175h33z" />
    <glyph glyph-name="s" unicode="s" horiz-adv-x="335" 
d="M160 -12c-59 0 -102 17 -144 57l42 75c25 -31 60 -48 94 -48c33 0 60 25 60 68c0 102 -176 114 -176 277c0 82 56 145 148 145c50 0 87 -14 122 -44l-38 -75c-24 25 -49 35 -78 35c-30 0 -54 -23 -54 -61c0 -91 177 -108 177 -276c0 -89 -61 -153 -153 -153z" />
    <glyph glyph-name="t" unicode="t" horiz-adv-x="294" 
d="M196 0h-98v465h-83v85h264v-85h-83v-465z" />
    <glyph glyph-name="u" unicode="u" horiz-adv-x="414" 
d="M207 -12c-99 0 -157 64 -157 212v350h98v-387c0 -61 19 -89 59 -89c39 0 59 29 59 89v387h98v-350c0 -148 -58 -212 -157 -212z" />
    <glyph glyph-name="v" unicode="v" horiz-adv-x="347" 
d="M229 0h-111l-116 550h101l70 -413l71 413h100z" />
    <glyph glyph-name="w" unicode="w" horiz-adv-x="514" 
d="M409 0h-99l-53 356l-53 -356h-99l-99 550h100l53 -369l59 369h79l59 -370l53 370h100z" />
    <glyph glyph-name="x" unicode="x" horiz-adv-x="360" 
d="M360 0h-107l-73 198l-73 -198h-107l120 280l-114 270h107l67 -188l66 188h107l-113 -269z" />
    <glyph glyph-name="y" unicode="y" horiz-adv-x="358" 
d="M228 0h-98v230l-132 320h103l78 -222l78 222h103l-132 -320v-230z" />
    <glyph glyph-name="z" unicode="z" horiz-adv-x="309" 
d="M284 0h-259v75l143 390h-143v85h253v-73l-143 -392h149v-85z" />
    <glyph glyph-name="exclamdown" unicode="&#xa1;" horiz-adv-x="191" 
d="M42 0l16 370h74l16 -370h-106zM30 496c0 35 30 64 65 64s65 -29 65 -64s-30 -64 -65 -64s-65 29 -65 64z" />
    <glyph glyph-name="questiondown" unicode="&#xbf;" horiz-adv-x="281" 
d="M14 107c0 107 100 128 100 204c0 13 -7 28 -16 38l73 30c15 -20 21 -42 21 -67c0 -89 -81 -109 -81 -183c0 -28 15 -60 48 -60c20 0 36 9 49 26l46 -55c-29 -34 -74 -52 -118 -52c-77 0 -122 52 -122 119zM73 496c0 35 30 64 65 64s64 -29 64 -64s-29 -64 -64 -64
s-65 29 -65 64z" />
    <glyph glyph-name="agrave" unicode="&#xe0;" horiz-adv-x="347" 
d="M118 550h111l115 -550h-100l-18 110h-105l-18 -110h-101zM214 195l-41 242l-41 -242h82zM232 606h-61l-103 144h85z" />
    <glyph glyph-name="aacute" unicode="&#xe1;" horiz-adv-x="347" 
d="M118 550h111l115 -550h-100l-18 110h-105l-18 -110h-101zM214 195l-41 242l-41 -242h82zM280 750l-103 -144h-61l79 144h85z" />
    <glyph glyph-name="acircumflex" unicode="&#xe2;" horiz-adv-x="347" 
d="M118 550h111l115 -550h-100l-18 110h-105l-18 -110h-101zM214 195l-41 242l-41 -242h82zM282 606h-53l-57 98l-53 -98h-54l64 144h87z" />
    <glyph glyph-name="atilde" unicode="&#xe3;" horiz-adv-x="347" 
d="M118 550h111l115 -550h-100l-18 110h-105l-18 -110h-101zM214 195l-41 242l-41 -242h82zM216 604c-54 0 -51 83 -82 83c-19 0 -32 -23 -32 -77h-50c0 76 27 134 80 134c54 0 50 -83 82 -83c19 0 31 23 31 77h50c0 -76 -26 -134 -79 -134z" />
    <glyph glyph-name="adieresis" unicode="&#xe4;" horiz-adv-x="347" 
d="M118 550h111l115 -550h-100l-18 110h-105l-18 -110h-101zM214 195l-41 242l-41 -242h82zM304 665c0 -30 -25 -54 -54 -54c-30 0 -54 24 -54 54c0 29 24 53 54 53c29 0 54 -24 54 -53zM150 665c0 -30 -24 -54 -54 -54c-29 0 -54 24 -54 54c0 29 25 53 54 53
c30 0 54 -24 54 -53z" />
    <glyph glyph-name="aring" unicode="&#xe5;" horiz-adv-x="347" 
d="M118 550h111l115 -550h-100l-18 110h-105l-18 -110h-101zM214 195l-41 242l-41 -242h82zM174 602c-48 0 -87 39 -87 86c0 48 39 87 87 87c47 0 85 -39 85 -87c0 -47 -38 -86 -85 -86zM174 646c23 0 42 19 42 42c0 24 -19 43 -42 43c-24 0 -43 -19 -43 -43
c0 -23 19 -42 43 -42z" />
    <glyph glyph-name="ae" unicode="&#xe6;" horiz-adv-x="502" 
d="M469 0h-242v110h-96l-33 -110h-101l187 550h285v-85h-144v-141h138v-86h-138v-153h144v-85zM227 195v243l-74 -243h74z" />
    <glyph glyph-name="ccedilla" unicode="&#xe7;" horiz-adv-x="371" 
d="M198 -193c-33 0 -62 14 -82 31l20 41c20 -17 39 -27 60 -27c24 0 44 15 44 38c0 18 -10 30 -26 30c-12 0 -20 -5 -27 -13l-37 21l23 64c-99 21 -140 137 -140 283c0 163 51 287 175 287c85 0 119 -62 140 -127l-79 -26c-14 43 -31 67 -61 67c-57 0 -75 -87 -75 -201
c0 -113 18 -201 75 -201c32 0 50 27 61 71l79 -25c-19 -62 -49 -124 -125 -131l-17 -43c9 7 16 10 29 10c31 0 56 -27 56 -67c0 -49 -40 -82 -93 -82z" />
    <glyph glyph-name="egrave" unicode="&#xe8;" horiz-adv-x="326" 
d="M293 0h-243v550h243v-85h-145v-141h139v-86h-139v-153h145v-85zM231 606h-61l-103 144h85z" />
    <glyph glyph-name="eacute" unicode="&#xe9;" horiz-adv-x="326" 
d="M293 0h-243v550h243v-85h-145v-141h139v-86h-139v-153h145v-85zM279 750l-103 -144h-61l79 144h85z" />
    <glyph glyph-name="ecircumflex" unicode="&#xea;" horiz-adv-x="326" 
d="M293 0h-243v550h243v-85h-145v-141h139v-86h-139v-153h145v-85zM279 606h-53l-57 98l-53 -98h-54l64 144h87z" />
    <glyph glyph-name="edieresis" unicode="&#xeb;" horiz-adv-x="326" 
d="M293 0h-243v550h243v-85h-145v-141h139v-86h-139v-153h145v-85zM304 665c0 -30 -25 -54 -54 -54c-30 0 -54 24 -54 54c0 29 24 53 54 53c29 0 54 -24 54 -53zM150 665c0 -30 -24 -54 -54 -54c-29 0 -54 24 -54 54c0 29 25 53 54 53c30 0 54 -24 54 -53z" />
    <glyph glyph-name="igrave" unicode="&#xec;" horiz-adv-x="195" 
d="M148 0h-98v550h98v-550zM156 606h-61l-103 144h85z" />
    <glyph glyph-name="iacute" unicode="&#xed;" horiz-adv-x="195" 
d="M148 0h-98v550h98v-550zM204 750l-103 -144h-61l79 144h85z" />
    <glyph glyph-name="icircumflex" unicode="&#xee;" horiz-adv-x="195" 
d="M148 0h-98v550h98v-550zM205 606h-53l-57 98l-53 -98h-54l64 144h87z" />
    <glyph glyph-name="idieresis" unicode="&#xef;" horiz-adv-x="195" 
d="M148 0h-98v550h98v-550zM230 665c0 -30 -25 -54 -54 -54c-30 0 -54 24 -54 54c0 29 24 53 54 53c29 0 54 -24 54 -53zM76 665c0 -30 -24 -54 -54 -54c-29 0 -54 24 -54 54c0 29 25 53 54 53c30 0 54 -24 54 -53z" />
    <glyph glyph-name="eth" unicode="&#xf0;" horiz-adv-x="433" 
d="M207 0h-137v244h-52v64h52v242h136c132 0 190 -118 190 -276s-57 -274 -189 -274zM225 244h-57v-159h38c61 0 91 74 91 189c0 119 -31 191 -91 191h-38v-157h57v-64z" />
    <glyph glyph-name="ntilde" unicode="&#xf1;" horiz-adv-x="409" 
d="M359 0h-95l-116 350v-350h-98v550h101l111 -338v338h97v-550zM245 604c-54 0 -51 83 -82 83c-19 0 -32 -23 -32 -77h-50c0 76 27 134 80 134c54 0 50 -83 82 -83c19 0 31 23 31 77h50c0 -76 -26 -134 -79 -134z" />
    <glyph glyph-name="ograve" unicode="&#xf2;" horiz-adv-x="416" 
d="M207 -12c-124 0 -174 127 -174 287s50 287 174 287c125 0 175 -127 175 -287s-50 -287 -175 -287zM207 74c59 0 75 92 75 201c0 110 -16 201 -75 201c-58 0 -74 -91 -74 -201c0 -109 16 -201 74 -201zM266 606h-61l-103 144h85z" />
    <glyph glyph-name="oacute" unicode="&#xf3;" horiz-adv-x="416" 
d="M207 -12c-124 0 -174 127 -174 287s50 287 174 287c125 0 175 -127 175 -287s-50 -287 -175 -287zM207 74c59 0 75 92 75 201c0 110 -16 201 -75 201c-58 0 -74 -91 -74 -201c0 -109 16 -201 74 -201zM315 750l-103 -144h-61l79 144h85z" />
    <glyph glyph-name="ocircumflex" unicode="&#xf4;" horiz-adv-x="416" 
d="M207 -12c-124 0 -174 127 -174 287s50 287 174 287c125 0 175 -127 175 -287s-50 -287 -175 -287zM207 74c59 0 75 92 75 201c0 110 -16 201 -75 201c-58 0 -74 -91 -74 -201c0 -109 16 -201 74 -201zM316 606h-53l-57 98l-53 -98h-54l64 144h87z" />
    <glyph glyph-name="otilde" unicode="&#xf5;" horiz-adv-x="416" 
d="M207 -12c-124 0 -174 127 -174 287s50 287 174 287c125 0 175 -127 175 -287s-50 -287 -175 -287zM207 74c59 0 75 92 75 201c0 110 -16 201 -75 201c-58 0 -74 -91 -74 -201c0 -109 16 -201 74 -201zM249 604c-54 0 -51 83 -82 83c-19 0 -32 -23 -32 -77h-50
c0 76 27 134 80 134c54 0 50 -83 82 -83c19 0 31 23 31 77h50c0 -76 -26 -134 -79 -134z" />
    <glyph glyph-name="odieresis" unicode="&#xf6;" horiz-adv-x="416" 
d="M207 -12c-124 0 -174 127 -174 287s50 287 174 287c125 0 175 -127 175 -287s-50 -287 -175 -287zM207 74c59 0 75 92 75 201c0 110 -16 201 -75 201c-58 0 -74 -91 -74 -201c0 -109 16 -201 74 -201zM338 665c0 -30 -25 -54 -54 -54c-30 0 -54 24 -54 54
c0 29 24 53 54 53c29 0 54 -24 54 -53zM184 665c0 -30 -24 -54 -54 -54c-29 0 -54 24 -54 54c0 29 25 53 54 53c30 0 54 -24 54 -53z" />
    <glyph glyph-name="oslash" unicode="&#xf8;" horiz-adv-x="416" 
d="M207 -12c-41 0 -73 13 -99 37l-12 -25h-56l35 68c-29 52 -42 125 -42 207c0 160 50 287 174 287c42 0 76 -15 102 -40l14 28h55l-37 -72c28 -52 41 -123 41 -203c0 -160 -50 -287 -175 -287zM133 275c0 -31 1 -60 4 -87l124 242c-11 29 -29 46 -54 46
c-58 0 -74 -91 -74 -201zM207 74c59 0 75 92 75 201c0 28 -1 56 -4 81l-123 -241c11 -26 28 -41 52 -41z" />
    <glyph glyph-name="ugrave" unicode="&#xf9;" horiz-adv-x="414" 
d="M207 -12c-99 0 -157 64 -157 212v350h98v-387c0 -61 19 -89 59 -89c39 0 59 29 59 89v387h98v-350c0 -148 -58 -212 -157 -212zM265 606h-61l-103 144h85z" />
    <glyph glyph-name="uacute" unicode="&#xfa;" horiz-adv-x="414" 
d="M207 -12c-99 0 -157 64 -157 212v350h98v-387c0 -61 19 -89 59 -89c39 0 59 29 59 89v387h98v-350c0 -148 -58 -212 -157 -212zM314 750l-103 -144h-61l79 144h85z" />
    <glyph glyph-name="ucircumflex" unicode="&#xfb;" horiz-adv-x="414" 
d="M207 -12c-99 0 -157 64 -157 212v350h98v-387c0 -61 19 -89 59 -89c39 0 59 29 59 89v387h98v-350c0 -148 -58 -212 -157 -212zM316 606h-53l-57 98l-53 -98h-54l64 144h87z" />
    <glyph glyph-name="udieresis" unicode="&#xfc;" horiz-adv-x="414" 
d="M207 -12c-99 0 -157 64 -157 212v350h98v-387c0 -61 19 -89 59 -89c39 0 59 29 59 89v387h98v-350c0 -148 -58 -212 -157 -212zM337 665c0 -30 -25 -54 -54 -54c-30 0 -54 24 -54 54c0 29 24 53 54 53c29 0 54 -24 54 -53zM183 665c0 -30 -24 -54 -54 -54
c-29 0 -54 24 -54 54c0 29 25 53 54 53c30 0 54 -24 54 -53z" />
    <glyph glyph-name="yacute" unicode="&#xfd;" horiz-adv-x="358" 
d="M228 0h-98v230l-132 320h103l78 -222l78 222h103l-132 -320v-230zM285 750l-103 -144h-61l79 144h85z" />
    <glyph glyph-name="thorn" unicode="&#xfe;" horiz-adv-x="363" 
d="M148 0h-98v550h98v-88h44c104 0 152 -80 152 -173c0 -94 -48 -173 -152 -173h-44v-116zM181 201c43 0 63 38 63 87c0 51 -20 89 -63 89h-33v-176h33z" />
    <glyph glyph-name="ydieresis" unicode="&#xff;" horiz-adv-x="358" 
d="M228 0h-98v230l-132 320h103l78 -222l78 222h103l-132 -320v-230zM309 665c0 -30 -25 -54 -54 -54c-30 0 -54 24 -54 54c0 29 24 53 54 53c29 0 54 -24 54 -53zM155 665c0 -30 -24 -54 -54 -54c-29 0 -54 24 -54 54c0 29 25 53 54 53c30 0 54 -24 54 -53z" />
    <glyph glyph-name="germandbls" unicode="&#xdf;" horiz-adv-x="670" 
d="M160 -12c-59 0 -102 17 -144 57l42 75c25 -31 60 -48 94 -48c33 0 60 25 60 68c0 102 -176 114 -176 277c0 82 56 145 148 145c50 0 87 -14 122 -44l-38 -75c-24 25 -49 35 -78 35c-30 0 -54 -23 -54 -61c0 -91 177 -108 177 -276c0 -89 -61 -153 -153 -153zM495 -12
c-59 0 -102 17 -144 57l42 75c25 -31 60 -48 94 -48c33 0 60 25 60 68c0 102 -176 114 -176 277c0 82 56 145 148 145c50 0 87 -14 122 -44l-38 -75c-24 25 -49 35 -78 35c-30 0 -54 -23 -54 -61c0 -91 177 -108 177 -276c0 -89 -61 -153 -153 -153z" />
    <glyph glyph-name="NUL" horiz-adv-x="0" 
 />
    <glyph glyph-name="NUL" horiz-adv-x="0" 
 />
    <glyph glyph-name="CR" unicode="&#xd;" horiz-adv-x="0" 
 />
    </font>
</defs>
</svg>
